<?xml version="1.0" encoding="UTF-8"?>
<svg width="225px" height="107px" viewBox="0 0 225 107" version="1.1" xmlns="http://www.w3.org/2000/svg" xmlns:xlink="http://www.w3.org/1999/xlink">
    <!-- Generator: Sketch 48.2 (47327) - http://www.bohemiancoding.com/sketch -->
    <title>smoke</title>
    <desc>Created with Sketch.</desc>
    <defs></defs>
    <g id="Page-1" stroke="none" stroke-width="1" fill="none" fill-rule="evenodd">
        <g id="smoke">
            <path d="M143.964478,89.8866232 C136.778344,97.3537858 126.681763,102 115.5,102 C93.6847524,102 76,84.3152476 76,62.5 C76,61.506331 76.0366912,60.5212316 76.1087928,59.5459829 C72.3887454,61.1259576 68.2964445,62 64,62 C46.8791728,62 33,48.1208272 33,31 C33,13.8791728 46.8791728,0 64,0 C80.3734329,0 93.7820568,12.6938564 94.9215371,28.7772346 C100.914691,25.1122417 107.960675,23 115.5,23 C137.315248,23 155,40.6847524 155,62.5 C155,63.0782049 154.987577,63.6535082 154.962982,64.2256575 C157.836885,62.8009047 161.074912,62 164.5,62 C176.374122,62 186,71.6258779 186,83.5 C186,95.3741221 176.374122,105 164.5,105 C154.84977,105 146.684504,98.6421156 143.964478,89.8866232 Z" id="white" fill="#FFFFFF"></path>
            <path d="M185,73 C185.222519,73.3238956 185.276334,73.4024455 185.329639,73.4813683 C198.069388,92.0685211 202.195543,96.0935207 225,107 L41,107 C18.3563253,107 0,88.6436747 0,66 C0,45.9346855 14.4139785,29.2359361 33.4524544,25.6932328 C33.155003,27.4175825 33,29.1906898 33,31 C33,35.7095823 34.0502166,40.1738734 35.9292316,44.1714551 C35.9364322,44.1867743 35.9436897,44.2021427 35.9510041,44.2175603 L35.951051,44.2175381 C36.1750698,44.689734 36.7394633,44.8909213 37.2116592,44.6669025 C37.6113304,44.4772908 37.8263147,44.0360911 37.7293474,43.6044814 C37.7293474,43.6044814 37.7293474,43.6044814 37.7293474,43.6044814 C37.2519307,41.4794588 37,39.2691502 37,37 C37,20.4314575 50.4314575,7 67,7 C80.5437607,7 91.9913046,15.9749715 95.7196743,28.3019572 C83.9298229,35.1359991 76,47.8919448 76,62.5 C76,67.051248 76.7697323,71.4227155 78.186117,75.4913225 C78.186117,75.4913225 78.186117,75.4913225 78.186117,75.4913225 L78.186117,75.4913225 C78.363474,76.0007856 78.9202516,76.2700108 79.4297147,76.0926539 C79.9058591,75.926896 80.1776124,75.4259813 80.0569678,74.936457 C80.051747,74.9155202 80.0466858,74.8946803 80.0417268,74.8739515 C79.3606577,72.0270347 79,69.0556354 79,66 C79,45.0131795 96.0131795,28 117,28 C137.392681,28 154.033525,44.0635251 154.95939,64.2274326 C147.871971,67.7426966 143,75.0523934 143,83.5 C143,87.3089651 143.990493,90.8865883 145.727959,93.9893501 C145.751472,94.0313391 145.775466,94.0734718 145.799941,94.1157481 L145.799908,94.1157673 C146.056213,94.5584891 146.622887,94.7096092 147.065609,94.4533034 C147.461269,94.2242431 147.630626,93.7407652 147.464386,93.314878 C147.464386,93.314878 147.464386,93.314878 147.464386,93.314878 C146.518909,90.8926769 146,88.2569373 146,85.5 C146,73.6258779 155.625878,64 167.5,64 C174.51775,64 180.750199,67.3622744 184.674325,72.5638009 C184.790611,72.7072328 184.89917,72.8526325 185,73 Z" id="grey" fill="#EDEDED"></path>
        </g>
    </g>
</svg>