<?xml version="1.0" encoding="UTF-8"?>
<svg width="440px" height="212px" viewBox="0 0 440 212" version="1.1" xmlns="http://www.w3.org/2000/svg" xmlns:xlink="http://www.w3.org/1999/xlink">
    <!-- Generator: Sketch 48.2 (47327) - http://www.bohemiancoding.com/sketch -->
    <title>taxicab</title>
    <desc>Created with Sketch.</desc>
    <defs></defs>
    <g id="Page-1" stroke="none" stroke-width="1" fill="none" fill-rule="evenodd">
        <g id="taxicab">
            <g id="car">
                <g id="body" transform="translate(0.000000, 20.000000)">
                    <path d="M330,60 L410,60 C426.568542,60 440,73.4314575 440,90 L440,122 C440,138.568542 426.568542,152 410,152 L30,152 C13.4314575,152 9.13448861e-15,138.568542 7.10542736e-15,122 L0,90 C-2.02906125e-15,73.4314575 13.4314575,60 30,60 L111,60 L111,46 C111,20.5949015 131.594902,3.55271368e-15 157,0 L284,0 C309.405098,-3.55271368e-15 330,20.5949015 330,46 L330,60 Z" id="chassis" fill="#EEE14B"></path>
                    <g id="decorations" transform="translate(0.000000, 65.000000)" fill="#FFFFFF">
                        <path d="M114,10 L105,10 L105,0 L115,0 L115,10 L124,10 L124,20 L114,20 L114,10 Z M83,10 L83,0 L93,0 L93,10 L84,10 L84,20 L74,20 L74,10 L83,10 Z M0,0 L10,0 L10,10 L0,10 L0,0 Z M11,10 L21,10 L21,20 L11,20 L11,10 Z M0,21 L10,21 L10,31 L0,31 L0,21 Z M21,0 L31,0 L31,10 L21,10 L21,0 Z M31,10 L41,10 L41,20 L31,20 L31,10 Z M21,21 L31,21 L31,31 L21,31 L21,21 Z M42,0 L52,0 L52,10 L42,10 L42,0 Z M52,10 L62,10 L62,20 L52,20 L52,10 Z M42,21 L52,21 L52,31 L42,31 L42,21 Z M63,0 L73,0 L73,10 L63,10 L63,0 Z M94,10 L104,10 L104,20 L94,20 L94,10 Z M63,21 L73,21 L73,31 L63,31 L63,21 Z M83,21 L93,21 L93,31 L83,31 L83,21 Z M105,21 L115,21 L115,31 L105,31 L105,21 Z M125,0 L135,0 L135,10 L125,10 L125,0 Z M135,10 L145,10 L145,20 L135,20 L135,10 Z M125,21 L135,21 L135,31 L125,31 L125,21 Z M146,0 L156,0 L156,10 L146,10 L146,0 Z M157,10 L167,10 L167,20 L157,20 L157,10 Z M146,21 L156,21 L156,31 L146,31 L146,21 Z M167,0 L177,0 L177,10 L167,10 L167,0 Z M177,10 L187,10 L187,20 L177,20 L177,10 Z M167,21 L177,21 L177,31 L167,31 L167,21 Z M188,0 L198,0 L198,10 L188,10 L188,0 Z M198,10 L208,10 L208,20 L198,20 L198,10 Z M188,21 L198,21 L198,31 L188,31 L188,21 Z M209,0 L219,0 L219,10 L209,10 L209,0 Z M209,21 L219,21 L219,31 L209,31 L209,21 Z" id="checkers"></path>
                        <path d="M276.15,22.4 L276.15,26 L262.71,26 L262.71,22.4 L267.24,22.4 L267.24,9.02 L262.8,9.02 L262.8,6.17 L268.08,4.7 L271.62,4.7 L271.62,22.4 L276.15,22.4 Z M294.03,4.7 L294.03,8.6 C290.629983,13.000022 288.450005,18.799964 287.49,26 L282.96,26 C283.980005,19.2199661 286.029985,13.4400239 289.11,8.66 L282.99,8.66 L282.99,11.3 L278.67,11.3 L278.67,4.7 L294.03,4.7 Z M311.28,26 L296.61,26 L296.61,22.4 L304.95,14.3 C306.010005,13.299995 306.54,12.1700063 306.54,10.91 C306.54,10.1299961 306.270003,9.49500245 305.73,9.005 C305.189997,8.51499755 304.500004,8.27 303.66,8.27 C302.719995,8.27 302.005002,8.54499725 301.515,9.095 C301.024998,9.64500275 300.78,10.3499957 300.78,11.21 L300.87,12.38 L296.55,12.38 C296.49,12.0399983 296.46,11.6300024 296.46,11.15 C296.46,9.0899897 297.124993,7.42500635 298.455,6.155 C299.785007,4.88499365 301.519989,4.25 303.66,4.25 C305.860011,4.25 307.619993,4.8599939 308.94,6.08 C310.260007,7.3000061 310.92,8.8799903 310.92,10.82 C310.92,12.220007 310.660003,13.4299949 310.14,14.45 C309.619997,15.4700051 308.710007,16.5599942 307.41,17.72 L302.58,21.98 L311.28,21.98 L311.28,26 Z M321.09,4.25 C323.410012,4.25 325.274993,4.9999925 326.685,6.5 C328.095007,8.0000075 328.8,9.849989 328.8,12.05 C328.8,14.1500105 328.200006,16.3349886 327,18.605 C325.799994,20.8750113 324.030012,23.3399867 321.69,26 L316.41,26 C319.290014,22.8599843 321.369994,20.2400105 322.65,18.14 C321.949996,18.5000018 321.120005,18.68 320.16,18.68 C318.09999,18.68 316.465006,18.0050068 315.255,16.655 C314.044994,15.3049932 313.44,13.63001 313.44,11.63 C313.44,9.5499896 314.154993,7.8000071 315.585,6.38 C317.015007,4.9599929 318.849989,4.25 321.09,4.25 Z M318.78,9.08 C318.179997,9.7400033 317.88,10.5899948 317.88,11.63 C317.88,12.6700052 318.179997,13.5199967 318.78,14.18 C319.380003,14.8400033 320.149995,15.17 321.09,15.17 C322.030005,15.17 322.799997,14.8400033 323.4,14.18 C324.000003,13.5199967 324.3,12.6700052 324.3,11.63 C324.3,10.5899948 324.000003,9.7400033 323.4,9.08 C322.799997,8.4199967 322.030005,8.09 321.09,8.09 C320.149995,8.09 319.380003,8.4199967 318.78,9.08 Z" id="1729"></path>
                    </g>
                </g>
                <path d="M214.09017,0 L227.90983,0 C229.80369,-2.02998233e-15 231.535006,1.07001188 232.381966,2.76393202 L241,20 L201,20 L209.618034,2.76393202 C210.464994,1.07001188 212.19631,-5.40281928e-16 214.09017,-8.8817842e-16 Z" id="sign" fill="#575756"></path>
            </g>
            <g id="wheels" transform="translate(60.000000, 127.000000)" fill="#575756">
                <circle id="wheel" cx="42.5" cy="42.5" r="42.5"></circle>
                <circle id="wheel" cx="277.5" cy="42.5" r="42.5"></circle>
            </g>
        </g>
    </g>
</svg>