<?xml version="1.0" encoding="UTF-8"?>
<svg width="566px" height="212px" viewBox="0 0 566 212" version="1.1" xmlns="http://www.w3.org/2000/svg" xmlns:xlink="http://www.w3.org/1999/xlink">
    <!-- Generator: Sketch 48.2 (47327) - http://www.bohemiancoding.com/sketch -->
    <title>taxicab+smoke</title>
    <desc>Created with Sketch.</desc>
    <defs></defs>
    <g id="Page-1" stroke="none" stroke-width="1" fill="none" fill-rule="evenodd">
        <g id="taxicab+smoke">
            <g id="car" transform="translate(126.000000, 0.000000)">
                <g id="body" transform="translate(0.000000, 20.000000)">
                    <path d="M330,60 L410,60 C426.568542,60 440,73.4314575 440,90 L440,122 C440,138.568542 426.568542,152 410,152 L30,152 C13.4314575,152 9.13448861e-15,138.568542 7.10542736e-15,122 L0,90 C-2.02906125e-15,73.4314575 13.4314575,60 30,60 L111,60 L111,46 C111,20.5949015 131.594902,3.55271368e-15 157,0 L284,0 C309.405098,-3.55271368e-15 330,20.5949015 330,46 L330,60 Z" id="chassis" fill="#EEE14B"></path>
                    <g id="decorations" transform="translate(0.000000, 65.000000)" fill="#FFFFFF">
                        <path d="M114,10 L105,10 L105,0 L115,0 L115,10 L124,10 L124,20 L114,20 L114,10 Z M83,10 L83,0 L93,0 L93,10 L84,10 L84,20 L74,20 L74,10 L83,10 Z M0,0 L10,0 L10,10 L0,10 L0,0 Z M11,10 L21,10 L21,20 L11,20 L11,10 Z M0,21 L10,21 L10,31 L0,31 L0,21 Z M21,0 L31,0 L31,10 L21,10 L21,0 Z M31,10 L41,10 L41,20 L31,20 L31,10 Z M21,21 L31,21 L31,31 L21,31 L21,21 Z M42,0 L52,0 L52,10 L42,10 L42,0 Z M52,10 L62,10 L62,20 L52,20 L52,10 Z M42,21 L52,21 L52,31 L42,31 L42,21 Z M63,0 L73,0 L73,10 L63,10 L63,0 Z M94,10 L104,10 L104,20 L94,20 L94,10 Z M63,21 L73,21 L73,31 L63,31 L63,21 Z M83,21 L93,21 L93,31 L83,31 L83,21 Z M105,21 L115,21 L115,31 L105,31 L105,21 Z M125,0 L135,0 L135,10 L125,10 L125,0 Z M135,10 L145,10 L145,20 L135,20 L135,10 Z M125,21 L135,21 L135,31 L125,31 L125,21 Z M146,0 L156,0 L156,10 L146,10 L146,0 Z M157,10 L167,10 L167,20 L157,20 L157,10 Z M146,21 L156,21 L156,31 L146,31 L146,21 Z M167,0 L177,0 L177,10 L167,10 L167,0 Z M177,10 L187,10 L187,20 L177,20 L177,10 Z M167,21 L177,21 L177,31 L167,31 L167,21 Z M188,0 L198,0 L198,10 L188,10 L188,0 Z M198,10 L208,10 L208,20 L198,20 L198,10 Z M188,21 L198,21 L198,31 L188,31 L188,21 Z M209,0 L219,0 L219,10 L209,10 L209,0 Z M209,21 L219,21 L219,31 L209,31 L209,21 Z" id="checkers"></path>
                        <path d="M276.15,22.4 L276.15,26 L262.71,26 L262.71,22.4 L267.24,22.4 L267.24,9.02 L262.8,9.02 L262.8,6.17 L268.08,4.7 L271.62,4.7 L271.62,22.4 L276.15,22.4 Z M294.03,4.7 L294.03,8.6 C290.629983,13.000022 288.450005,18.799964 287.49,26 L282.96,26 C283.980005,19.2199661 286.029985,13.4400239 289.11,8.66 L282.99,8.66 L282.99,11.3 L278.67,11.3 L278.67,4.7 L294.03,4.7 Z M311.28,26 L296.61,26 L296.61,22.4 L304.95,14.3 C306.010005,13.299995 306.54,12.1700063 306.54,10.91 C306.54,10.1299961 306.270003,9.49500245 305.73,9.005 C305.189997,8.51499755 304.500004,8.27 303.66,8.27 C302.719995,8.27 302.005002,8.54499725 301.515,9.095 C301.024998,9.64500275 300.78,10.3499957 300.78,11.21 L300.87,12.38 L296.55,12.38 C296.49,12.0399983 296.46,11.6300024 296.46,11.15 C296.46,9.0899897 297.124993,7.42500635 298.455,6.155 C299.785007,4.88499365 301.519989,4.25 303.66,4.25 C305.860011,4.25 307.619993,4.8599939 308.94,6.08 C310.260007,7.3000061 310.92,8.8799903 310.92,10.82 C310.92,12.220007 310.660003,13.4299949 310.14,14.45 C309.619997,15.4700051 308.710007,16.5599942 307.41,17.72 L302.58,21.98 L311.28,21.98 L311.28,26 Z M321.09,4.25 C323.410012,4.25 325.274993,4.9999925 326.685,6.5 C328.095007,8.0000075 328.8,9.849989 328.8,12.05 C328.8,14.1500105 328.200006,16.3349886 327,18.605 C325.799994,20.8750113 324.030012,23.3399867 321.69,26 L316.41,26 C319.290014,22.8599843 321.369994,20.2400105 322.65,18.14 C321.949996,18.5000018 321.120005,18.68 320.16,18.68 C318.09999,18.68 316.465006,18.0050068 315.255,16.655 C314.044994,15.3049932 313.44,13.63001 313.44,11.63 C313.44,9.5499896 314.154993,7.8000071 315.585,6.38 C317.015007,4.9599929 318.849989,4.25 321.09,4.25 Z M318.78,9.08 C318.179997,9.7400033 317.88,10.5899948 317.88,11.63 C317.88,12.6700052 318.179997,13.5199967 318.78,14.18 C319.380003,14.8400033 320.149995,15.17 321.09,15.17 C322.030005,15.17 322.799997,14.8400033 323.4,14.18 C324.000003,13.5199967 324.3,12.6700052 324.3,11.63 C324.3,10.5899948 324.000003,9.7400033 323.4,9.08 C322.799997,8.4199967 322.030005,8.09 321.09,8.09 C320.149995,8.09 319.380003,8.4199967 318.78,9.08 Z" id="1729"></path>
                    </g>
                </g>
                <path d="M214.09017,0 L227.90983,0 C229.80369,-2.02998233e-15 231.535006,1.07001188 232.381966,2.76393202 L241,20 L201,20 L209.618034,2.76393202 C210.464994,1.07001188 212.19631,-5.40281928e-16 214.09017,-8.8817842e-16 Z" id="sign" fill="#575756"></path>
            </g>
            <g id="wheels" transform="translate(186.000000, 127.000000)" fill="#575756">
                <circle id="wheel" cx="42.5" cy="42.5" r="42.5"></circle>
                <circle id="wheel" cx="277.5" cy="42.5" r="42.5"></circle>
            </g>
            <g id="smoke" transform="translate(0.000000, 105.000000)">
                <path d="M143.964478,89.8866232 C136.778344,97.3537858 126.681763,102 115.5,102 C93.6847524,102 76,84.3152476 76,62.5 C76,61.506331 76.0366912,60.5212316 76.1087928,59.5459829 C72.3887454,61.1259576 68.2964445,62 64,62 C46.8791728,62 33,48.1208272 33,31 C33,13.8791728 46.8791728,0 64,0 C80.3734329,0 93.7820568,12.6938564 94.9215371,28.7772346 C100.914691,25.1122417 107.960675,23 115.5,23 C137.315248,23 155,40.6847524 155,62.5 C155,63.0782049 154.987577,63.6535082 154.962982,64.2256575 C157.836885,62.8009047 161.074912,62 164.5,62 C176.374122,62 186,71.6258779 186,83.5 C186,95.3741221 176.374122,105 164.5,105 C154.84977,105 146.684504,98.6421156 143.964478,89.8866232 Z" id="white" fill="#FFFFFF"></path>
                <path d="M185,73 C185.222519,73.3238956 185.276334,73.4024455 185.329639,73.4813683 C198.069388,92.0685211 202.195543,96.0935207 225,107 L41,107 C18.3563253,107 0,88.6436747 0,66 C0,45.9346855 14.4139785,29.2359361 33.4524544,25.6932328 C33.155003,27.4175825 33,29.1906898 33,31 C33,35.7095823 34.0502166,40.1738734 35.9292316,44.1714551 C35.9364322,44.1867743 35.9436897,44.2021427 35.9510041,44.2175603 L35.951051,44.2175381 C36.1750698,44.689734 36.7394633,44.8909213 37.2116592,44.6669025 C37.6113304,44.4772908 37.8263147,44.0360911 37.7293474,43.6044814 C37.7293474,43.6044814 37.7293474,43.6044814 37.7293474,43.6044814 C37.2519307,41.4794588 37,39.2691502 37,37 C37,20.4314575 50.4314575,7 67,7 C80.5437607,7 91.9913046,15.9749715 95.7196743,28.3019572 C83.9298229,35.1359991 76,47.8919448 76,62.5 C76,67.051248 76.7697323,71.4227155 78.186117,75.4913225 C78.186117,75.4913225 78.186117,75.4913225 78.186117,75.4913225 L78.186117,75.4913225 C78.363474,76.0007856 78.9202516,76.2700108 79.4297147,76.0926539 C79.9058591,75.926896 80.1776124,75.4259813 80.0569678,74.936457 C80.051747,74.9155202 80.0466858,74.8946803 80.0417268,74.8739515 C79.3606577,72.0270347 79,69.0556354 79,66 C79,45.0131795 96.0131795,28 117,28 C137.392681,28 154.033525,44.0635251 154.95939,64.2274326 C147.871971,67.7426966 143,75.0523934 143,83.5 C143,87.3089651 143.990493,90.8865883 145.727959,93.9893501 C145.751472,94.0313391 145.775466,94.0734718 145.799941,94.1157481 L145.799908,94.1157673 C146.056213,94.5584891 146.622887,94.7096092 147.065609,94.4533034 C147.461269,94.2242431 147.630626,93.7407652 147.464386,93.314878 C147.464386,93.314878 147.464386,93.314878 147.464386,93.314878 C146.518909,90.8926769 146,88.2569373 146,85.5 C146,73.6258779 155.625878,64 167.5,64 C174.51775,64 180.750199,67.3622744 184.674325,72.5638009 C184.790611,72.7072328 184.89917,72.8526325 185,73 Z" id="grey" fill="#EDEDED"></path>
            </g>
        </g>
    </g>
</svg>